<svg class="me-planet" width="258" height="244" viewBox="0 0 258 244" fill="none" xmlns="http://www.w3.org/2000/svg" aria-hidden="true">
  <defs>
    <clipPath id="me-planet-clip">
      <circle cx="131" cy="121" r="109"/>
    </clipPath>
  </defs>
  <g class="me-planet-grid" clip-path="url(#me-planet-clip)">
    <ellipse cx="131" cy="121" rx="36" ry="109"/>
    <ellipse cx="131" cy="121" rx="73" ry="109"/>
    <ellipse cx="131" cy="121" rx="109" ry="36"/>
    <ellipse cx="131" cy="121" rx="109" ry="73"/>
  </g>
  <circle class="me-planet-globe" cx="131" cy="121" r="109"/>
  <path class="me-planet-land" fill-rule="evenodd" d="M134.1 18.6L145.8 19.6L167.8 29.7L165.1 24.4L192.6 39.1L214.2 61.2L228.4 89.0L233.5 121.0L227.5 155.6L210.9 185.2L185.8 207.6L154.3 220.8L181.8 205.3L205.1 184.9L219.2 159.1L220.7 152.1L203.7 146.6L197.8 137.0L180.7 129.8L178.5 123.8L163.1 126.3L158.6 121.7L145.9 125.9L143.4 130.1L128.1 128.8L126.2 115.3L116.2 111.9L118.3 100.7L114.4 100.6L106.7 106.6L101.0 107.1L97.1 103.2L95.8 97.2L100.6 85.1L119.9 81.8L127.6 86.5L130.3 94.7L134.3 91.3L132.2 79.2L140.6 72.4L143.6 64.0L150.0 59.2L150.5 54.5L163.8 50.9L162.8 47.5L160.1 48.7L153.9 43.9L158.8 44.4L162.8 41.6L166.0 47.5L173.6 48.2L150.4 30.2L144.6 22.2ZM133.1 22.3L136.9 23.3L132.7 27.3L135.7 33.0L135.0 35.4L134.9 33.4L132.0 35.1L132.5 38.1L117.6 31.1L119.6 27.7L128.9 27.4ZM78.3 33.1L63.5 64.7L68.2 91.2L71.3 95.6L70.7 83.8L79.4 105.7L83.6 109.0L113.6 122.9L128.6 135.5L137.8 135.9L140.0 143.6L131.8 155.2L130.4 163.7L142.8 183.7L150.3 188.5L153.9 194.2L149.0 208.1L138.8 223.1L91.1 215.4L58.5 193.5L36.6 160.9L28.5 121.0L32.1 94.0L42.2 69.8L57.9 49.1ZM138.5 88.4L136.0 89.6L138.1 90.6L137.4 95.7L139.9 96.8L141.4 93.8L147.9 100.5L147.0 95.9ZM130.4 96.1L123.2 100.6L132.5 101.4L140.3 106.5L147.4 105.2L147.8 109.6L153.9 111.3L161.4 108.6L149.0 100.8L144.9 101.6ZM172.0 107.6L176.6 118.9L175.8 122.9L178.1 116.9L175.6 108.5Z"/>
  <circle class="me-planet-mark" cx="150.5" cy="144.5" r="3.5"/>
</svg>
